<svg width="45" height="45" viewBox="0 0 45 45" fill="none"
    xmlns="http://www.w3.org/2000/svg">
    <path fill-rule="evenodd" clip-rule="evenodd" d="M1.40625 2.15625C1.40625 1.74204 1.74204 1.40625 2.15625 1.40625H28.7813C29.1955 1.40625 29.5312 1.74204 29.5312 2.15625V34.4063C29.5312 34.8205 29.1955 35.1562 28.7812 35.1562H2.15625C1.74204 35.1562 1.40625 34.8205 1.40625 34.4062V2.15625Z" stroke="#18A0FB" stroke-width="1.5" stroke-linecap="round" stroke-linejoin="round"/>
    <path d="M29.5312 26.7188H1.40625" stroke="#18A0FB" stroke-width="1.5" stroke-linecap="round" stroke-linejoin="round"/>
    <path d="M35.1656 11.6829L42.6319 14.171C42.9857 14.2891 43.2782 14.5429 43.4448 14.8766C43.6115 15.2103 43.6388 15.5965 43.5206 15.9504L34.6275 42.6316C34.5094 42.9855 34.2556 43.2779 33.9219 43.4446C33.5882 43.6112 33.2019 43.6385 32.8481 43.5204L21.0938 39.6035" stroke="#18A0FB" stroke-width="1.5" stroke-linecap="round" stroke-linejoin="round"/>
    <path fill-rule="evenodd" clip-rule="evenodd" d="M15.4688 16.875C18.187 16.875 20.3906 14.6714 20.3906 11.9531C20.3906 9.23485 18.187 7.03125 15.4688 7.03125C12.7505 7.03125 10.5469 9.23485 10.5469 11.9531C10.5469 14.6714 12.7505 16.875 15.4688 16.875Z" stroke="#18A0FB" stroke-width="1.5" stroke-linecap="round" stroke-linejoin="round"/>
    <path fill-rule="evenodd" clip-rule="evenodd" d="M7.03125 26.7188C7.03125 22.0588 10.8088 18.2812 15.4688 18.2812C20.1287 18.2812 23.9062 22.0588 23.9062 26.7188H7.03125Z" stroke="#18A0FB" stroke-width="1.5" stroke-linecap="round" stroke-linejoin="round"/>
</svg>
