<svg width="42" height="42" viewBox="0 0 42 42" fill="none"
    xmlns="http://www.w3.org/2000/svg">
    <path fill-rule="evenodd" clip-rule="evenodd" d="M7.66667 41C11.3486 41 14.3333 38.0151 14.3333 34.3331C14.3333 30.6511 11.3486 27.6663 7.66667 27.6663C3.98477 27.6663 1 30.6511 1 34.3331C1 38.0151 3.98477 41 7.66667 41Z" stroke="#18A0FB" stroke-width="1.5" stroke-linecap="round" stroke-linejoin="round"/>
    <path fill-rule="evenodd" clip-rule="evenodd" d="M34.3334 32.9997C38.0153 32.9997 41 30.0149 41 26.3329C41 22.6509 38.0153 19.666 34.3334 19.666C30.6515 19.666 27.6667 22.6509 27.6667 26.3329C27.6667 30.0149 30.6515 32.9997 34.3334 32.9997Z" stroke="#18A0FB" stroke-width="1.5" stroke-linecap="round" stroke-linejoin="round"/>
    <path d="M14.3333 34.3331V11.6107C14.333 9.31564 15.8009 7.27774 17.9778 6.55097L37.6187 1.09659C38.4212 0.874546 39.2813 1.04009 39.9441 1.54415C40.6068 2.0482 40.9961 2.83289 40.9965 3.66555V26.3329" stroke="#18A0FB" stroke-width="1.5" stroke-linecap="round" stroke-linejoin="round"/>
    <path d="M14.3333 15.1665L41 7.16626" stroke="#18A0FB" stroke-width="1.5" stroke-linecap="round" stroke-linejoin="round"/>
</svg>
