<svg width="72" height="72" viewBox="0 0 72 72" fill="none"
    xmlns="http://www.w3.org/2000/svg">
    <path d="M36.0002 47.6667C45.0209 47.6667 52.3335 40.354 52.3335 31.3333C52.3335 22.3127 45.0209 15 36.0002 15C26.9796 15 19.6669 22.3127 19.6669 31.3333C19.6669 40.354 26.9796 47.6667 36.0002 47.6667Z" stroke="#4F3A57" stroke-opacity="0.25" stroke-width="2" stroke-linecap="round" stroke-linejoin="round"/>
    <path d="M29.0004 46.0898C28.9436 47.9751 28.2991 49.7956 27.157 51.2966C26.0149 52.7977 24.4323 53.9043 22.6304 54.4618L12.0511 59.5392C11.6045 59.7268 11.1738 59.9499 10.7631 60.2065" stroke="#4F3A57" stroke-opacity="0.25" stroke-width="2" stroke-linecap="round" stroke-linejoin="round"/>
    <path d="M61.2369 60.2114C60.8262 59.9548 60.3954 59.7316 59.9489 59.5441L49.3789 54.4667C45.4962 52.4227 43.0089 50.1127 43.0089 46.0947" stroke="#4F3A57" stroke-opacity="0.25" stroke-width="2" stroke-linecap="round" stroke-linejoin="round"/>
    <path d="M36 71C55.33 71 71 55.33 71 36C71 16.67 55.33 1 36 1C16.67 1 1 16.67 1 36C1 55.33 16.67 71 36 71Z" stroke="#4F3A57" stroke-opacity="0.25" stroke-width="2" stroke-linecap="round" stroke-linejoin="round"/>
</svg>
