<svg width="58" height="62" viewBox="0 0 58 62" fill="none" xmlns="http://www.w3.org/2000/svg">
    <path fill-rule="evenodd" clip-rule="evenodd" d="M44 0.798718C38.8497 0.774597 34.1665 4.00133 32.0406 9.03886C29.9147 14.0764 30.7427 19.9849 34.155 24.1276L32.515 34.2725L41.0725 28.6081C45.9854 29.8192 51.1099 27.8996 54.2553 23.67C57.4006 19.4403 58.0103 13.6492 55.8235 8.7723C53.6368 3.89541 49.0407 0.795859 44 0.798718V0.798718Z" stroke="white" stroke-width="1.5" stroke-linecap="round" stroke-linejoin="round"/>
    <path fill-rule="evenodd" clip-rule="evenodd" d="M19.5801 49.1208C24.24 49.1208 28.0176 45.0643 28.0176 40.0604C28.0176 35.0565 24.24 31 19.5801 31C14.9202 31 11.1426 35.0565 11.1426 40.0604C11.1426 45.0643 14.9202 49.1208 19.5801 49.1208Z" stroke="white" stroke-width="1.5" stroke-linecap="round" stroke-linejoin="round"/>
    <path d="M32.65 61.1827C29.9271 56.2012 24.9491 53.1429 19.57 53.1467C14.1909 53.1506 9.21673 56.216 6.5 61.2015" stroke="white" stroke-width="1.5" stroke-linecap="round" stroke-linejoin="round"/>
    <path d="M44 37.0403V61.2014" stroke="white" stroke-width="1.5" stroke-linecap="round" stroke-linejoin="round"/>
    <path d="M0.875 61.2013V8.85227C0.875 4.40434 4.23286 0.798584 8.375 0.798584H27.125" stroke="white" stroke-width="1.5" stroke-linecap="round" stroke-linejoin="round"/>
    <path d="M0.875 16.906H23.375" stroke="white" stroke-width="1.5" stroke-linecap="round" stroke-linejoin="round"/>
    <path d="M15.875 8.85229H23.375" stroke="white" stroke-width="1.5" stroke-linecap="round" stroke-linejoin="round"/>
</svg>
