<svg width="58" height="58" viewBox="0 0 58 58" fill="none" xmlns="http://www.w3.org/2000/svg">
    <path d="M55.1574 42.5826C48.2178 35.5859 41.2579 28.5893 34.2776 21.5926C34.0714 21.399 33.897 21.1712 33.7656 20.9207C34.7058 16.673 34.008 12.225 31.8149 8.47358C29.6195 4.72242 26.0897 1.94858 21.9416 0.709584C17.7911 -0.52714 13.3276 -0.137658 9.45378 1.80282L21.4591 12.0133C22.2588 12.6966 22.3585 13.9014 21.6856 14.7122L15.7749 21.7544C15.093 22.5584 13.8945 22.6609 13.0902 21.9822L0.910294 11.6329C-0.41279 15.548 -0.290469 19.8091 1.25693 23.6404C2.80662 27.4713 5.67487 30.612 9.33858 32.4889C13.0043 34.3656 17.2184 34.853 21.2105 33.86C21.6681 34.09 22.0827 34.3998 22.4339 34.7756C29.1694 41.6562 35.953 48.4798 42.7813 55.2461C46.5105 58.9654 52.1245 58.8971 55.616 55.1642C58.951 51.6248 58.7765 46.2381 55.1584 42.5829L55.1574 42.5826ZM49.1423 53.4969C47.9778 53.481 46.8699 53.0004 46.0611 52.1599C45.2523 51.3195 44.8105 50.1876 44.8331 49.0192C44.8422 46.6141 46.7906 44.6713 49.1831 44.6804C51.5756 44.6918 53.5081 46.6482 53.4968 49.0534C53.5036 51.4858 51.5597 53.4673 49.1423 53.4969Z" fill="#0ECE7D"/>
</svg>
