<svg width="58" height="62" viewBox="0 0 58 62" fill="none" xmlns="http://www.w3.org/2000/svg">
    <path fill-rule="evenodd" clip-rule="evenodd" d="M10.25 61.2014C15.4277 61.2014 19.625 56.6942 19.625 51.1343C19.625 45.5743 15.4277 41.0671 10.25 41.0671C5.07233 41.0671 0.875 45.5743 0.875 51.1343C0.875 56.6942 5.07233 61.2014 10.25 61.2014Z" stroke="white" stroke-width="1.5" stroke-linecap="round" stroke-linejoin="round"/>
    <path fill-rule="evenodd" clip-rule="evenodd" d="M47.75 49.1208C52.9277 49.1208 57.125 44.6136 57.125 39.0537C57.125 33.4938 52.9277 28.9866 47.75 28.9866C42.5723 28.9866 38.375 33.4938 38.375 39.0537C38.375 44.6136 42.5723 49.1208 47.75 49.1208Z" stroke="white" stroke-width="1.5" stroke-linecap="round" stroke-linejoin="round"/>
    <path d="M19.625 51.1343V16.8229C19.6246 13.3573 21.6888 10.2801 24.75 9.18263L52.37 0.946389C53.4985 0.611099 54.7081 0.86108 55.6401 1.62221C56.572 2.38334 57.1195 3.56824 57.12 4.82558V39.0538" stroke="white" stroke-width="1.5" stroke-linecap="round" stroke-linejoin="round"/>
    <path d="M19.625 22.1921L57.125 10.1116" stroke="white" stroke-width="1.5" stroke-linecap="round" stroke-linejoin="round"/>
</svg>
