<svg width="58" height="62" viewBox="0 0 58 62" fill="none" xmlns="http://www.w3.org/2000/svg">
    <path fill-rule="evenodd" clip-rule="evenodd" d="M0.875 1.54883C0.875 1.13461 1.21079 0.798828 1.625 0.798828H37.625C38.0392 0.798828 38.375 1.13461 38.375 1.54883V48.371C38.375 48.7852 38.0392 49.121 37.625 49.121H1.625C1.21079 49.121 0.875 48.7852 0.875 48.371V1.54883Z" stroke="white" stroke-width="1.5" stroke-linecap="round" stroke-linejoin="round"/>
    <path d="M38.375 37.0405H0.875" stroke="white" stroke-width="1.5" stroke-linecap="round" stroke-linejoin="round"/>
    <path d="M45.8875 15.5125L55.8425 19.0749C56.3143 19.2439 56.7042 19.6073 56.9265 20.0851C57.1487 20.5629 57.185 21.1159 57.0275 21.6225L45.17 59.8239C45.0126 60.3305 44.6742 60.7492 44.2292 60.9878C43.7843 61.2265 43.2693 61.2655 42.7975 61.0963L27.125 55.4883" stroke="white" stroke-width="1.5" stroke-linecap="round" stroke-linejoin="round"/>
    <path fill-rule="evenodd" clip-rule="evenodd" d="M19.625 22.9465C23.2494 22.9465 26.1875 19.7915 26.1875 15.8995C26.1875 12.0076 23.2494 8.85254 19.625 8.85254C16.0006 8.85254 13.0625 12.0076 13.0625 15.8995C13.0625 19.7915 16.0006 22.9465 19.625 22.9465Z" stroke="white" stroke-width="1.5" stroke-linecap="round" stroke-linejoin="round"/>
    <path fill-rule="evenodd" clip-rule="evenodd" d="M8.375 37.0405C8.375 30.3686 13.4118 24.96 19.625 24.96C25.8382 24.96 30.875 30.3686 30.875 37.0405H8.375Z" stroke="white" stroke-width="1.5" stroke-linecap="round" stroke-linejoin="round"/>
</svg>
